<?xml version="1.0" encoding="UTF-8"?>
<svg id="Layer_1" xmlns="http://www.w3.org/2000/svg" version="1.1" viewBox="0 0 292.01 108.35">
  <!-- Generator: Adobe Illustrator 29.8.3, SVG Export Plug-In . SVG Version: 2.1.1 Build 3)  -->
  <defs>
    <style>
      .st0 {
        fill: #52ae32;
      }

      .st1 {
        fill: #3259fd;
      }
    </style>
  </defs>
  <g>
    <polygon class="st0" points="42.81 102.09 42.81 77.82 61.22 65.68 42.81 53.55 42.81 29.27 79.63 53.55 79.63 77.82 42.81 102.09"/>
    <polygon class="st1" points="42.84 5.72 42.84 29.99 24.43 42.13 42.84 54.26 42.84 78.54 6.02 54.26 6.02 29.99 42.84 5.72"/>
    <g>
      <path d="M106.35,57.71l-4.16,4.34v7.84h-7.13v-31h7.13v14.48l13.73-14.48h7.97l-12.84,13.82,13.6,17.19h-8.37l-9.92-12.18Z"/>
      <path d="M156.27,61.43c0,5.36-4.25,8.46-12.4,8.46h-16.03v-31h15.15c7.75,0,11.74,3.23,11.74,8.06,0,3.1-1.59,5.49-4.12,6.82,3.45,1.11,5.67,3.76,5.67,7.66ZM134.97,44.29v7.31h7.13c3.5,0,5.4-1.24,5.4-3.68s-1.9-3.63-5.4-3.63h-7.13ZM149.05,60.67c0-2.61-1.99-3.85-5.71-3.85h-8.37v7.66h8.37c3.72,0,5.71-1.15,5.71-3.81Z"/>
      <path d="M188.61,48.9c0,6.91-5.18,9.98-13.46,9.98h-6.24v11.01h-7.18v-31h13.42c8.28,0,13.46,3.07,13.46,10.02ZM181.35,48.9c0-3.41-2.21-4.17-6.6-4.17h-5.85v8.3h5.85c4.38,0,6.6-.76,6.6-4.13Z"/>
      <path d="M231.13,48.9c0,6.91-5.18,9.98-13.46,9.98h-6.24v11.01h-7.18v-31h13.42c8.28,0,13.46,3.07,13.46,10.02ZM223.87,48.9c0-3.41-2.21-4.17-6.6-4.17h-5.85v8.3h5.85c4.38,0,6.6-.76,6.6-4.13Z"/>
      <path d="M255.28,56.29v13.6l-3.81-3.7h-1.43c-1.28,2.17-4.99,4.05-8.48,4.05-5.58,0-8.9-3.1-8.9-7.22s2.97-7.13,10.23-7.13h4.54c0-2.97-.43-4.25-4.15-4.25-1.65,0-3.61,1.28-3.61,2.6h-7.05c0-7.36,7.38-8.54,11.19-8.54,7.26,0,11.47,3.37,11.47,10.59ZM248.37,60.5h-4.74c-3.23,0-4.25.62-4.25,2.22,0,1.1.57,2.43,3,2.43,2.3,0,5.99-1.23,5.99-4.65Z"/>
      <path d="M286.06,46.06l-10.76,25.29c-2.3,5.76-3.94,8.3-8.24,8.3h-5.2l-.07-5.84h4.89s.91-1.62,1.84-3.75h0l-9.65-24.01h7.13l6.69,16.17,6.73-16.17h6.64Z"/>
    </g>
  </g>
  <rect x="251.47" y="63.11" width="7.01" height="7.01"/>
</svg>